<?xml version="1.0" encoding="UTF-8"?>
<svg width="256px" height="115px" viewBox="0 0 256 115" version="1.1" xmlns="http://www.w3.org/2000/svg" xmlns:xlink="http://www.w3.org/1999/xlink">
    <title>Group 21</title>
    <defs>
        <polygon id="path-1" points="0 114 255.119 114 255.119 0.615 0 0.615"></polygon>
    </defs>
    <g id="全局" stroke="none" stroke-width="1" fill="none" fill-rule="evenodd">
        <g id="Group-21">
            <polygon id="Fill-1" fill="#FF0000" points="141.734 114.385 255.12 114.385 255.12 1 141.734 1"></polygon>
            <polygon id="Fill-2" fill="#FEFEFE" points="225.289 52.328 232.451 52.328 232.451 16.512 225.289 16.512"></polygon>
            <g id="Group-20" transform="translate(0.000000, 0.385000)">
                <path d="M179.9209,40.0141 C179.9209,46.5921 174.5829,51.9441 167.9949,51.9441 C161.3919,51.9441 156.0559,46.5921 156.0559,40.0141 L156.0559,16.1271 L163.2279,16.1271 L163.2279,40.0141 C163.2279,42.6471 165.3539,44.7951 167.9949,44.7951 C170.6389,44.7951 172.7469,42.6471 172.7469,40.0141 L172.7469,16.1271 L179.9209,16.1271 L179.9209,40.0141 Z" id="Fill-3" fill="#FEFEFE"></path>
                <polygon id="Fill-5" fill="#FEFEFE" points="213.336 98.4902 189.478 98.4902 189.478 62.6752 196.628 62.6752 196.628 91.3182 213.336 91.3182"></polygon>
                <polygon id="Fill-7" fill="#FEFEFE" points="213.336 51.9438 206.175 51.9438 196.628 31.4768 196.628 51.9438 189.478 51.9438 189.478 16.1278 196.628 16.1278 206.175 36.5958 206.175 16.1278 213.336 16.1278"></polygon>
                <path d="M172.7481,86.5546 C172.7481,89.1796 170.6391,91.3196 167.9951,91.3196 C165.3521,91.3196 163.2271,89.1796 163.2271,86.5546 L163.2271,74.6246 C163.2271,71.9836 165.3521,69.8606 167.9951,69.8606 C170.6391,69.8606 172.7481,71.9836 172.7481,74.6246 L172.7481,86.5546 Z M167.9951,62.6736 C161.3921,62.6736 156.0561,68.0266 156.0561,74.6246 L156.0561,86.5546 C156.0561,93.1406 161.3921,98.4916 167.9951,98.4916 C168.7741,98.4916 169.5571,98.4276 170.3111,98.2826 L172.7481,105.6636 L179.9221,105.6636 L176.3831,95.0406 C178.5691,92.8666 179.9221,89.8846 179.9221,86.5546 L179.9221,74.6246 C179.9221,68.0266 174.5841,62.6736 167.9951,62.6736 L167.9951,62.6736 Z" id="Fill-9" fill="#FEFEFE"></path>
                <path d="M233.6358,86.5546 C233.6358,89.1796 231.4898,91.3196 228.8698,91.3196 C226.2278,91.3196 224.0908,89.1796 224.0908,86.5546 L224.0908,74.6246 C224.0908,71.9836 226.2278,69.8606 228.8698,69.8606 C231.4898,69.8606 233.6358,71.9836 233.6358,74.6246 L233.6358,86.5546 Z M228.8698,62.6736 C222.2678,62.6736 216.9148,68.0266 216.9148,74.6246 L216.9148,86.5546 C216.9148,93.1406 222.2678,98.4916 228.8698,98.4916 C235.4478,98.4916 240.7928,93.1406 240.7928,86.5546 L240.7928,74.6246 C240.7928,68.0266 235.4478,62.6736 228.8698,62.6736 L228.8698,62.6736 Z" id="Fill-11" fill="#FEFEFE"></path>
                <mask id="mask-2" fill="white">
                    <use xlink:href="#path-1"></use>
                </mask>
                <g id="Clip-14"></g>
                <polygon id="Fill-13" fill="#FF0000" mask="url(#mask-2)" points="0 114 113.388 114 113.388 0.615 0 0.615"></polygon>
                <polygon id="Fill-15" fill="#FEFEFE" mask="url(#mask-2)" points="64.457 50.733 96.654 50.733 96.654 43.585 64.457 43.585"></polygon>
                <polygon id="Fill-16" fill="#FEFEFE" mask="url(#mask-2)" points="68.023 23.287 93.087 23.287 93.087 16.127 68.023 16.127"></polygon>
                <polygon id="Fill-17" fill="#FEFEFE" mask="url(#mask-2)" points="41.7847 16.1274 20.2757 16.1274 20.2757 23.2874 34.6117 23.2874 34.6117 43.5844 16.7207 43.5844 16.7207 50.7324 48.9357 50.7324 48.9357 43.5844 41.7847 43.5844"></polygon>
                <path d="M71.601,91.319 L89.492,91.319 L89.492,71.034 L71.601,71.034 L71.601,91.319 Z M64.457,63.86 L64.457,63.86 L64.457,98.491 L96.654,98.491 L96.654,63.86 L64.457,63.86 Z" id="Fill-18" fill="#FEFEFE" mask="url(#mask-2)"></path>
                <polygon id="Fill-19" fill="#FEFEFE" mask="url(#mask-2)" points="20.2759 63.8593 16.6299 81.1893 23.7759 81.1893 25.9359 71.0333 40.3039 71.0333 36.0929 91.3183 14.5589 91.3183 13.1259 98.4903 41.7849 98.4903 48.9359 63.8593"></polygon>
            </g>
        </g>
    </g>
</svg>